<svg data-v-fde0c5aa="" xmlns="http://www.w3.org/2000/svg" viewBox="0 0 300 300" class="iconAbove"><!----><defs data-v-fde0c5aa=""><!----></defs><rect data-v-fde0c5aa="" fill="transparent" x="0" y="0" width="300px" height="300px" class="logo-background-square"></rect><defs data-v-fde0c5aa=""><!----></defs><g data-v-fde0c5aa="" id="cf172254-e271-447c-96a3-7173bcc5ff13" fill="#000000" transform="matrix(3.672229051589966,0,0,3.672229051589966,19.115814684414573,175.96569822542938)"><path d="M7.49 1.13L0.50 1.13C-0.15 1.13 0.55 2.58 1.20 2.58L3.18 2.58L3.18 9.63C3.18 10.19 4.94 10.19 4.94 9.63L4.94 2.58L7.49 2.58C8.04 2.58 8.04 1.13 7.49 1.13ZM13.50 6.23C13.50 4.38 12.47 3.37 10.43 3.37C8.30 3.37 7.20 4.66 7.20 6.66C7.20 9.04 8.92 10.04 10.64 10.04C11.42 10.04 12.17 9.83 12.81 9.42C13.20 9.17 13.20 8.02 12.68 8.25C11.97 8.57 11.35 8.75 10.77 8.75C9.79 8.75 8.88 8.27 8.85 7.28C9.23 7.34 9.65 7.36 10.02 7.36C11.79 7.36 13.50 6.89 13.50 6.23ZM8.88 6.10C8.89 5.03 9.60 4.62 10.50 4.62C11.48 4.62 12.00 5.08 12.00 5.77C12.00 5.98 11.09 6.16 9.93 6.16C9.59 6.16 9.24 6.15 8.88 6.10ZM14.38 6.72C14.38 8.97 15.78 10.05 17.81 10.05C18.70 10.05 19.39 9.74 19.81 9.42C20.19 9.11 20.19 7.76 19.68 8.08C19.28 8.36 18.66 8.61 18.02 8.61C16.95 8.61 16.02 8.19 16.02 6.72C16.02 5.24 16.95 4.80 18.02 4.80C18.66 4.80 19.28 5.07 19.68 5.35C20.17 5.68 20.19 4.31 19.81 3.99C19.39 3.65 18.70 3.36 17.81 3.36C15.78 3.36 14.38 4.42 14.38 6.72ZM28.41 8.57C28.28 8.62 28.17 8.64 28.07 8.64C27.79 8.64 27.68 8.44 27.68 8.05L27.68 7.50L27.68 5.73C27.68 4.26 26.81 3.37 25.41 3.37C24.49 3.37 23.65 3.68 22.99 4.33L22.99 0.63C22.99-0.03 21.34 0.66 21.34 1.32L21.34 9.63C21.34 10.19 22.99 10.19 22.99 9.63L22.99 5.75C23.58 5.07 24.19 4.82 24.74 4.82C25.58 4.82 26.03 5.26 26.03 6.30L26.03 7.20L26.03 8.29C26.03 9.65 26.60 10.11 27.33 10.11C27.68 10.11 28.03 10.01 28.41 9.87C29.01 9.62 28.98 8.29 28.41 8.57ZM33.29 6.23C33.29 8.36 34.19 10.05 36.90 10.05C39.62 10.05 40.52 8.36 40.52 6.23L40.52 1.44C40.52 0.88 38.88 0.88 38.88 1.44L38.88 6.17C38.88 7.50 38.26 8.55 36.90 8.55C35.55 8.55 34.93 7.50 34.93 6.17L34.93 1.20C34.93 0.55 33.29 1.25 33.29 1.90ZM49.01 8.57C48.89 8.62 48.79 8.64 48.69 8.64C48.41 8.64 48.27 8.44 48.27 8.04L48.27 7.52L48.27 5.73C48.27 4.26 47.42 3.37 46.02 3.37C45.08 3.37 44.21 3.71 43.53 4.38L43.30 3.67C43.16 3.29 41.93 3.25 41.93 3.78L41.93 9.63C41.93 10.19 43.57 10.19 43.57 9.63L43.57 5.77C44.17 5.08 44.77 4.82 45.33 4.82C46.17 4.82 46.63 5.26 46.63 6.30L46.63 7.20L46.63 8.29C46.63 9.65 47.19 10.11 47.92 10.11C48.27 10.11 48.64 10.01 49.01 9.87C49.60 9.62 49.57 8.29 49.01 8.57ZM51.27 2.31C51.83 2.31 52.22 1.92 52.22 1.29C52.22 0.70 51.83 0.29 51.27 0.29C50.68 0.29 50.30 0.70 50.30 1.29C50.30 1.92 50.68 2.31 51.27 2.31ZM52.42 8.51C52.37 8.53 52.33 8.54 52.29 8.54C52.15 8.54 52.08 8.43 52.08 8.25L52.08 3.56C52.08 2.90 50.43 3.58 50.43 4.26L50.43 8.65C50.43 9.63 50.90 10.04 51.53 10.04C51.81 10.04 52.12 9.97 52.42 9.83C53.00 9.53 53.00 8.26 52.42 8.51ZM59.33 8.58L55.85 8.58C56.78 7.17 58.06 5.89 59.60 4.79C59.96 4.54 59.89 3.46 59.43 3.46L54.12 3.46C53.47 3.46 54.17 4.84 54.82 4.84L57.60 4.84C56.04 5.95 54.99 7.15 53.94 8.67C53.72 8.96 53.66 9.95 54.14 9.95L59.33 9.95C59.88 9.95 59.88 8.58 59.33 8.58ZM62.02 2.31C62.58 2.31 62.97 1.92 62.97 1.29C62.97 0.70 62.58 0.29 62.02 0.29C61.43 0.29 61.05 0.70 61.05 1.29C61.05 1.92 61.43 2.31 62.02 2.31ZM63.17 8.51C63.13 8.53 63.08 8.54 63.04 8.54C62.90 8.54 62.83 8.43 62.83 8.25L62.83 3.56C62.83 2.90 61.18 3.58 61.18 4.26L61.18 8.65C61.18 9.63 61.66 10.04 62.29 10.04C62.57 10.04 62.87 9.97 63.17 9.83C63.76 9.53 63.76 8.26 63.17 8.51ZM70.57 8.50C69.73 8.79 69.31 8.16 68.91 7.50C68.73 7.20 68.54 6.89 68.33 6.65C69.29 5.80 70.11 4.90 70.98 3.81C71.40 3.28 69.58 3.26 69.15 3.81C68.21 4.96 67.55 5.60 66.51 6.43L66.51 0.63C66.51-0.03 64.88 0.67 64.88 1.33L64.88 9.63C64.88 10.19 66.51 10.19 66.51 9.63L66.51 8.12C66.78 7.92 67.02 7.74 67.27 7.55C67.52 7.84 67.75 8.19 67.98 8.54C68.57 9.48 69.19 10.39 70.62 9.90C71.20 9.69 71.13 8.29 70.57 8.50Z"></path></g><defs data-v-fde0c5aa=""><linearGradient data-v-fde0c5aa="" gradientTransform="rotate(25)" id="e54c8e2b-02f3-4818-bb5d-e47c22ba3957" x1="0%" y1="0%" x2="100%" y2="0%"><stop data-v-fde0c5aa="" offset="0%" stop-color="#420F14" stop-opacity="1"></stop><stop data-v-fde0c5aa="" offset="100%" stop-color="#C5545E" stop-opacity="1"></stop></linearGradient></defs><g data-v-fde0c5aa="" id="69203333-cc7a-4c0b-93ac-7b21feec131f" stroke="none" fill="url(#e54c8e2b-02f3-4818-bb5d-e47c22ba3957)" transform="matrix(3.093398094177246,0,0,3.093398094177246,100.50563022142964,73.47343824351324)"><path d="M12.289 5.343v19.9L1 13.954V5.343h11.289m1-1H0v10.026l13.289 13.289V4.343zM31 5.343v8.612L19.711 25.243v-19.9H31m1-1H18.711v23.315L32 14.369V4.343z"></path></g><!----></svg>